<svg xmlns="http://www.w3.org/2000/svg" xmlns:xlink="http://www.w3.org/1999/xlink" width="1640" zoomAndPan="magnify" viewBox="0 0 1230 693.000001" height="924" preserveAspectRatio="xMidYMid meet" version="1.0"><defs><g/><clipPath id="0c6e5a8546"><path d="M 32.597656 452.363281 L 392.554688 452.363281 L 392.554688 473.582031 L 32.597656 473.582031 Z M 32.597656 452.363281 " clip-rule="nonzero"/></clipPath><clipPath id="bf12f435fd"><path d="M 834.902344 203.960938 L 1194.859375 203.960938 L 1194.859375 225.175781 L 834.902344 225.175781 Z M 834.902344 203.960938 " clip-rule="nonzero"/></clipPath></defs><g fill="#000000" fill-opacity="1"><g transform="translate(139.193448, 408.759413)"><g><path d="M 114.53125 -36.859375 L 160.0625 -151.78125 L 217.625 -151.78125 L 217.625 -143.90625 C 213.289062 -143.90625 209.773438 -143.476562 207.078125 -142.625 C 204.378906 -141.769531 202.304688 -140.222656 200.859375 -137.984375 C 199.421875 -135.753906 198.472656 -132.695312 198.015625 -128.8125 C 197.554688 -124.9375 197.328125 -120.046875 197.328125 -114.140625 L 197.328125 -37.65625 C 197.328125 -31.082031 197.585938 -25.890625 198.109375 -22.078125 C 198.640625 -18.265625 199.691406 -15.304688 201.265625 -13.203125 C 202.835938 -11.097656 205.101562 -9.71875 208.0625 -9.0625 C 211.019531 -8.40625 214.929688 -8.015625 219.796875 -7.890625 L 219.796875 0 L 145.671875 0 L 145.671875 -7.890625 C 150.535156 -8.015625 154.445312 -8.4375 157.40625 -9.15625 C 160.363281 -9.882812 162.660156 -11.234375 164.296875 -13.203125 C 165.941406 -15.179688 167.023438 -17.972656 167.546875 -21.578125 C 168.078125 -25.191406 168.34375 -30.085938 168.34375 -36.265625 L 168.34375 -128.53125 L 167.359375 -128.53125 L 114.328125 1.96875 L 99.75 1.96875 L 44.9375 -128.53125 L 44.15625 -128.53125 L 44.15625 -37.65625 C 44.15625 -31.082031 44.414062 -25.890625 44.9375 -22.078125 C 45.46875 -18.265625 46.519531 -15.304688 48.09375 -13.203125 C 49.675781 -11.097656 51.941406 -9.71875 54.890625 -9.0625 C 57.847656 -8.40625 61.757812 -8.015625 66.625 -7.890625 L 66.625 0 L 5.90625 0 L 5.90625 -7.890625 C 10.769531 -8.015625 14.710938 -8.4375 17.734375 -9.15625 C 20.765625 -9.882812 23.097656 -11.234375 24.734375 -13.203125 C 26.378906 -15.179688 27.460938 -17.972656 27.984375 -21.578125 C 28.515625 -25.191406 28.78125 -30.085938 28.78125 -36.265625 L 28.78125 -115.515625 C 28.78125 -121.035156 28.515625 -125.632812 27.984375 -129.3125 C 27.460938 -132.988281 26.476562 -135.910156 25.03125 -138.078125 C 23.582031 -140.253906 21.507812 -141.769531 18.8125 -142.625 C 16.125 -143.476562 12.546875 -143.90625 8.078125 -143.90625 L 8.078125 -151.78125 L 67.8125 -151.78125 L 113.734375 -36.859375 Z M 114.53125 -36.859375 "/></g></g></g><g fill="#000000" fill-opacity="1"><g transform="translate(364.892605, 408.759413)"><g><path d="M 149.21875 -61.109375 C 149.21875 -49.941406 148.003906 -40.378906 145.578125 -32.421875 C 143.148438 -24.472656 139.367188 -17.9375 134.234375 -12.8125 C 129.109375 -7.6875 122.503906 -3.941406 114.421875 -1.578125 C 106.347656 0.785156 96.660156 1.96875 85.359375 1.96875 C 64.203125 1.96875 48.726562 -2.460938 38.9375 -11.328125 C 29.144531 -20.203125 24.25 -34.363281 24.25 -53.8125 L 24.25 -107.828125 C 24.25 -112.953125 24.179688 -117.253906 24.046875 -120.734375 C 23.921875 -124.222656 23.722656 -127.148438 23.453125 -129.515625 C 23.191406 -131.878906 22.832031 -133.816406 22.375 -135.328125 C 21.914062 -136.835938 21.359375 -138.117188 20.703125 -139.171875 C 19.515625 -141.015625 17.800781 -142.265625 15.5625 -142.921875 C 13.332031 -143.578125 9.921875 -143.90625 5.328125 -143.90625 L 5.328125 -151.78125 L 76.09375 -151.78125 L 76.09375 -143.90625 C 70.570312 -143.90625 66.492188 -143.609375 63.859375 -143.015625 C 61.234375 -142.421875 59.195312 -141.269531 57.75 -139.5625 C 56.832031 -138.507812 56.078125 -137.226562 55.484375 -135.71875 C 54.898438 -134.207031 54.441406 -132.234375 54.109375 -129.796875 C 53.785156 -127.367188 53.554688 -124.378906 53.421875 -120.828125 C 53.285156 -117.285156 53.21875 -112.953125 53.21875 -107.828125 L 53.21875 -56.1875 C 53.21875 -41.195312 56.40625 -30.117188 62.78125 -22.953125 C 69.15625 -15.796875 78.976562 -12.21875 92.25 -12.21875 C 119.320312 -12.21875 132.859375 -27.265625 132.859375 -57.359375 L 132.859375 -102.90625 C 132.859375 -108.414062 132.757812 -113.140625 132.5625 -117.078125 C 132.363281 -121.023438 132.035156 -124.378906 131.578125 -127.140625 C 131.117188 -129.898438 130.523438 -132.203125 129.796875 -134.046875 C 129.078125 -135.890625 128.191406 -137.398438 127.140625 -138.578125 C 125.304688 -140.421875 122.941406 -141.769531 120.046875 -142.625 C 117.160156 -143.476562 113.15625 -143.90625 108.03125 -143.90625 L 108.03125 -151.78125 L 171.890625 -151.78125 L 171.890625 -143.90625 C 167.023438 -143.90625 163.28125 -143.539062 160.65625 -142.8125 C 158.03125 -142.09375 155.992188 -140.8125 154.546875 -138.96875 C 153.492188 -137.789062 152.640625 -136.25 151.984375 -134.34375 C 151.328125 -132.4375 150.800781 -130.066406 150.40625 -127.234375 C 150.007812 -124.410156 149.710938 -121.023438 149.515625 -117.078125 C 149.316406 -113.140625 149.21875 -108.414062 149.21875 -102.90625 Z M 149.21875 -61.109375 "/></g></g></g><g fill="#000000" fill-opacity="1"><g transform="translate(538.355725, 408.759413)"><g><path d="M 132.078125 1.96875 L 44.75 -122.421875 L 43.953125 -122.421875 L 43.953125 -37.65625 C 43.953125 -31.082031 44.179688 -25.890625 44.640625 -22.078125 C 45.109375 -18.265625 46.097656 -15.304688 47.609375 -13.203125 C 49.117188 -11.097656 51.21875 -9.71875 53.90625 -9.0625 C 56.601562 -8.40625 60.117188 -8.015625 64.453125 -7.890625 L 64.453125 0 L 5.90625 0 L 5.90625 -7.890625 C 10.769531 -8.015625 14.679688 -8.4375 17.640625 -9.15625 C 20.597656 -9.882812 22.894531 -11.234375 24.53125 -13.203125 C 26.175781 -15.179688 27.257812 -17.972656 27.78125 -21.578125 C 28.3125 -25.191406 28.578125 -30.085938 28.578125 -36.265625 L 28.578125 -115.515625 C 28.578125 -121.035156 28.3125 -125.601562 27.78125 -129.21875 C 27.257812 -132.832031 26.273438 -135.6875 24.828125 -137.78125 C 23.390625 -139.882812 21.320312 -141.363281 18.625 -142.21875 C 15.9375 -143.070312 12.359375 -143.632812 7.890625 -143.90625 L 7.890625 -151.78125 L 62.890625 -151.78125 L 142.328125 -37.84375 L 143.109375 -37.84375 L 143.109375 -114.140625 C 143.109375 -120.578125 142.878906 -125.734375 142.421875 -129.609375 C 141.960938 -133.484375 140.976562 -136.472656 139.46875 -138.578125 C 137.957031 -140.679688 135.851562 -142.0625 133.15625 -142.71875 C 130.457031 -143.375 126.941406 -143.769531 122.609375 -143.90625 L 122.609375 -151.78125 L 181.15625 -151.78125 L 181.15625 -143.90625 C 176.289062 -143.769531 172.378906 -143.335938 169.421875 -142.609375 C 166.472656 -141.890625 164.175781 -140.546875 162.53125 -138.578125 C 160.882812 -136.609375 159.796875 -133.78125 159.265625 -130.09375 C 158.742188 -126.414062 158.484375 -121.554688 158.484375 -115.515625 L 158.484375 1.96875 Z M 132.078125 1.96875 "/></g></g></g><g fill="#000000" fill-opacity="1"><g transform="translate(723.645854, 408.759413)"><g><path d="M 6.90625 0 L 6.90625 -7.890625 C 11.238281 -8.015625 14.75 -8.375 17.4375 -8.96875 C 20.132812 -9.5625 22.238281 -10.675781 23.75 -12.3125 C 25.257812 -13.957031 26.273438 -16.191406 26.796875 -19.015625 C 27.328125 -21.847656 27.59375 -25.628906 27.59375 -30.359375 L 27.59375 -121.421875 C 27.59375 -126.023438 27.394531 -129.738281 27 -132.5625 C 26.613281 -135.394531 25.757812 -137.628906 24.4375 -139.265625 C 23.125 -140.910156 21.316406 -142.023438 19.015625 -142.609375 C 16.722656 -143.203125 13.734375 -143.632812 10.046875 -143.90625 L 10.046875 -151.78125 L 84.953125 -151.78125 C 97.578125 -151.78125 109.207031 -149.804688 119.84375 -145.859375 C 130.488281 -141.921875 139.6875 -136.46875 147.4375 -129.5 C 155.195312 -122.539062 161.242188 -114.265625 165.578125 -104.671875 C 169.921875 -95.078125 172.09375 -84.628906 172.09375 -73.328125 C 172.09375 -62.554688 170.054688 -52.664062 165.984375 -43.65625 C 161.910156 -34.65625 156.222656 -26.9375 148.921875 -20.5 C 141.628906 -14.0625 132.890625 -9.035156 122.703125 -5.421875 C 112.523438 -1.804688 101.320312 0 89.09375 0 Z M 59.921875 -139.765625 C 57.691406 -139.765625 56.578125 -138.644531 56.578125 -136.40625 L 56.578125 -34.5 C 56.578125 -26.875 58.941406 -21.222656 63.671875 -17.546875 C 68.398438 -13.867188 75.691406 -12.03125 85.546875 -12.03125 C 102.765625 -12.03125 116.003906 -17.21875 125.265625 -27.59375 C 134.535156 -37.976562 139.171875 -53.09375 139.171875 -72.9375 C 139.171875 -83.445312 137.921875 -92.84375 135.421875 -101.125 C 132.921875 -109.40625 129.304688 -116.398438 124.578125 -122.109375 C 119.847656 -127.828125 114.097656 -132.195312 107.328125 -135.21875 C 100.566406 -138.25 92.976562 -139.765625 84.5625 -139.765625 Z M 59.921875 -139.765625 "/></g></g></g><g fill="#000000" fill-opacity="1"><g transform="translate(904.796525, 408.759413)"><g><path d="M 93.046875 -153.75 C 104.867188 -153.75 115.90625 -151.710938 126.15625 -147.640625 C 136.40625 -143.566406 145.304688 -137.984375 152.859375 -130.890625 C 160.421875 -123.796875 166.367188 -115.453125 170.703125 -105.859375 C 175.046875 -96.265625 177.21875 -85.878906 177.21875 -74.703125 C 177.21875 -64.066406 175.015625 -54.082031 170.609375 -44.75 C 166.210938 -35.414062 160.234375 -27.296875 152.671875 -20.390625 C 145.117188 -13.492188 136.21875 -8.039062 125.96875 -4.03125 C 115.71875 -0.03125 104.742188 1.96875 93.046875 1.96875 C 81.347656 1.96875 70.375 -0.03125 60.125 -4.03125 C 49.875 -8.039062 40.9375 -13.492188 33.3125 -20.390625 C 25.6875 -27.296875 19.707031 -35.414062 15.375 -44.75 C 11.039062 -54.082031 8.875 -64.066406 8.875 -74.703125 C 8.875 -85.878906 11.039062 -96.265625 15.375 -105.859375 C 19.707031 -115.453125 25.648438 -123.796875 33.203125 -130.890625 C 40.765625 -137.984375 49.671875 -143.566406 59.921875 -147.640625 C 70.171875 -151.710938 81.210938 -153.75 93.046875 -153.75 Z M 93.046875 -10.84375 C 100.660156 -10.84375 107.554688 -12.320312 113.734375 -15.28125 C 119.910156 -18.238281 125.164062 -22.441406 129.5 -27.890625 C 133.84375 -33.347656 137.164062 -39.984375 139.46875 -47.796875 C 141.769531 -55.617188 142.921875 -64.394531 142.921875 -74.125 C 142.921875 -84.375 141.769531 -93.601562 139.46875 -101.8125 C 137.164062 -110.03125 133.84375 -117.0625 129.5 -122.90625 C 125.164062 -128.75 119.910156 -133.210938 113.734375 -136.296875 C 107.554688 -139.390625 100.660156 -140.9375 93.046875 -140.9375 C 85.285156 -140.9375 78.347656 -139.390625 72.234375 -136.296875 C 66.128906 -133.210938 60.90625 -128.75 56.5625 -122.90625 C 52.226562 -117.0625 48.910156 -110.03125 46.609375 -101.8125 C 44.316406 -93.601562 43.171875 -84.375 43.171875 -74.125 C 43.171875 -64.394531 44.316406 -55.617188 46.609375 -47.796875 C 48.910156 -39.984375 52.226562 -33.347656 56.5625 -27.890625 C 60.90625 -22.441406 66.128906 -18.238281 72.234375 -15.28125 C 78.347656 -12.320312 85.285156 -10.84375 93.046875 -10.84375 Z M 93.046875 -10.84375 "/></g></g></g><g fill="#000000" fill-opacity="1"><g transform="translate(611.050924, 473.53507)"><g><path d="M 9.324219 0 L 9.324219 -11.414062 L 15.089844 -11.414062 C 26.671875 -11.414062 26.714844 -29.847656 15.089844 -29.847656 L 3.34375 -29.847656 L 3.34375 0 Z M 9.324219 -17.222656 L 9.324219 -23.914062 L 14.589844 -23.914062 C 18.601562 -23.914062 18.601562 -17.222656 14.589844 -17.222656 Z M 9.324219 -17.222656 "/></g></g></g><g fill="#000000" fill-opacity="1"><g transform="translate(646.998675, 473.53507)"><g><path d="M 18.226562 0 L 25 0 L 18.058594 -12.332031 C 26.839844 -14.882812 25.792969 -29.890625 15.132812 -29.890625 L 3.34375 -29.890625 L 3.34375 0 L 9.324219 0 L 9.324219 -11.414062 L 12.207031 -11.414062 Z M 9.324219 -17.222656 L 9.324219 -23.914062 L 14.589844 -23.914062 C 18.644531 -23.914062 18.644531 -17.222656 14.589844 -17.222656 Z M 9.324219 -17.222656 "/></g></g></g><g fill="#000000" fill-opacity="1"><g transform="translate(683.364387, 473.53507)"><g><path d="M 18.8125 0 L 18.8125 -5.976562 L 9.324219 -5.976562 L 9.324219 -11.957031 L 17.183594 -11.957031 L 17.183594 -17.933594 L 9.324219 -17.933594 L 9.324219 -23.914062 L 18.3125 -23.914062 L 18.3125 -29.890625 L 3.34375 -29.890625 L 3.34375 0 Z M 18.8125 0 "/></g></g></g><g fill="#000000" fill-opacity="1"><g transform="translate(715.174425, 473.53507)"><g><path d="M 9.324219 -16.261719 L 24.457031 0.628906 L 26.042969 0.628906 L 26.042969 -29.847656 L 20.023438 -29.847656 L 20.023438 -12.960938 L 4.933594 -30.519531 L 3.34375 -30.519531 L 3.34375 0 L 9.324219 0 Z M 9.324219 -16.261719 "/></g></g></g><g fill="#000000" fill-opacity="1"><g transform="translate(755.343491, 473.53507)"><g><path d="M 12.25 -29.890625 L 3.34375 -29.890625 L 3.34375 0 L 12.25 0 C 32.148438 0 32.148438 -29.890625 12.25 -29.890625 Z M 12.25 -23.914062 C 23.871094 -23.914062 23.871094 -5.976562 12.25 -5.976562 L 9.324219 -5.976562 L 9.324219 -23.914062 Z M 12.25 -23.914062 "/></g></g></g><g fill="#000000" fill-opacity="1"><g transform="translate(795.512556, 473.53507)"><g><path d="M 0.667969 0 L 7.441406 0 L 8.613281 -3.21875 L 18.519531 -3.21875 L 19.730469 0 L 26.460938 0 L 13.878906 -30.976562 L 13.253906 -30.976562 Z M 10.785156 -8.820312 L 13.585938 -16.597656 L 16.304688 -8.820312 Z M 10.785156 -8.820312 "/></g></g></g><g fill="#000000" fill-opacity="1"><g transform="translate(833.55007, 473.53507)"><g><path d="M 1.964844 -1.921875 C 6.019531 0.167969 9.742188 0.375 11.414062 0.25 C 17.015625 -0.0429688 20.441406 -3.847656 20.441406 -8.820312 C 20.441406 -13.585938 16.429688 -16.261719 11.789062 -17.976562 C 10.074219 -18.5625 8.613281 -19.3125 8.445312 -20.984375 C 8.320312 -22.660156 9.28125 -24.207031 11.414062 -24.332031 C 12.332031 -24.371094 14.214844 -24.414062 17.515625 -23.078125 L 18.269531 -28.84375 C 14.421875 -30.183594 12.375 -30.183594 10.828125 -30.101562 C 5.851562 -29.847656 2.382812 -26.003906 2.382812 -20.984375 C 2.382812 -15.96875 6.5625 -13.585938 11.246094 -11.871094 C 12.917969 -11.289062 14.214844 -10.535156 14.339844 -8.820312 C 14.507812 -7.191406 13 -5.9375 11.246094 -5.8125 C 9.867188 -5.683594 6.144531 -5.769531 2.71875 -8.195312 Z M 1.964844 -1.921875 "/></g></g></g><g fill="#000000" fill-opacity="1"><g transform="translate(866.404993, 473.53507)"><g/></g></g><g fill="#000000" fill-opacity="1"><g transform="translate(889.020106, 473.53507)"><g><path d="M 12.25 -29.890625 L 3.34375 -29.890625 L 3.34375 0 L 12.25 0 C 32.148438 0 32.148438 -29.890625 12.25 -29.890625 Z M 12.25 -23.914062 C 23.871094 -23.914062 23.871094 -5.976562 12.25 -5.976562 L 9.324219 -5.976562 L 9.324219 -23.914062 Z M 12.25 -23.914062 "/></g></g></g><g fill="#000000" fill-opacity="1"><g transform="translate(929.189172, 473.53507)"><g><path d="M 18.8125 0 L 18.8125 -5.976562 L 9.324219 -5.976562 L 9.324219 -11.957031 L 17.183594 -11.957031 L 17.183594 -17.933594 L 9.324219 -17.933594 L 9.324219 -23.914062 L 18.3125 -23.914062 L 18.3125 -29.890625 L 3.34375 -29.890625 L 3.34375 0 Z M 18.8125 0 "/></g></g></g><g fill="#000000" fill-opacity="1"><g transform="translate(960.99921, 473.53507)"><g><path d="M 9.324219 -16.261719 L 24.457031 0.628906 L 26.042969 0.628906 L 26.042969 -29.847656 L 20.023438 -29.847656 L 20.023438 -12.960938 L 4.933594 -30.519531 L 3.34375 -30.519531 L 3.34375 0 L 9.324219 0 Z M 9.324219 -16.261719 "/></g></g></g><g fill="#000000" fill-opacity="1"><g transform="translate(1001.168275, 473.53507)"><g><path d="M 9.324219 0 L 9.324219 -29.890625 L 3.34375 -29.890625 L 3.34375 0 Z M 9.324219 0 "/></g></g></g><g fill="#000000" fill-opacity="1"><g transform="translate(1024.619312, 473.53507)"><g><path d="M 17.054688 -17.222656 L 5.265625 -30.351562 L 3.34375 -30.351562 L 3.34375 0 L 9.40625 0 L 9.40625 -16.679688 L 17.054688 -8.652344 L 24.707031 -16.679688 L 24.664062 0 L 30.726562 0 L 30.726562 -30.351562 L 28.84375 -30.351562 Z M 17.054688 -17.222656 "/></g></g></g><g clip-path="url(#0c6e5a8546)"><path fill="#884939" d="M 32.597656 452.363281 L 392.554688 452.363281 L 392.554688 473.582031 L 32.597656 473.582031 Z M 32.597656 452.363281 " fill-opacity="1" fill-rule="nonzero"/></g><g clip-path="url(#bf12f435fd)"><path fill="#884939" d="M 834.902344 203.960938 L 1194.859375 203.960938 L 1194.859375 225.175781 L 834.902344 225.175781 Z M 834.902344 203.960938 " fill-opacity="1" fill-rule="nonzero"/></g></svg>